<svg id="ic_faq_active" xmlns="http://www.w3.org/2000/svg" width="20" height="18.996" viewBox="0 0 20 18.996">
  <g id="Group_21814" data-name="Group 21814" transform="translate(0 0)">
    <g id="Group_21813" data-name="Group 21813" transform="translate(0 0)">
      <path id="Path_14909" data-name="Path 14909" d="M17.1,22.068H13.214a.407.407,0,0,0,0,.814H17.1a2.159,2.159,0,0,1,2.114,2.2v6.836a2.159,2.159,0,0,1-2.114,2.2h-2.3a.384.384,0,0,0-.276.118l-1.578,1.63V34.519a.4.4,0,0,0-.391-.407H6.454a2.159,2.159,0,0,1-2.114-2.2V25.079a2.159,2.159,0,0,1,2.114-2.2h3.732a.407.407,0,0,0,0-.814H6.454a2.959,2.959,0,0,0-2.9,3.011v.4H2.9A2.959,2.959,0,0,0,0,28.491v7.242a2.959,2.959,0,0,0,2.9,3.011H5.031l2.131,2.2a.384.384,0,0,0,.276.118.378.378,0,0,0,.15-.031.407.407,0,0,0,.241-.376V38.744h5.716a2.959,2.959,0,0,0,2.9-3.011v-.807h.66A2.959,2.959,0,0,0,20,31.915V25.079A2.959,2.959,0,0,0,17.1,22.068ZM15.66,35.733a2.159,2.159,0,0,1-2.114,2.2H7.438a.4.4,0,0,0-.391.407v1.341l-1.578-1.63a.384.384,0,0,0-.276-.118H2.9a2.04,2.04,0,0,1-.235-.014V35.495a.392.392,0,1,0-.783,0v2.163a2.213,2.213,0,0,1-1.1-1.925V28.491a2.159,2.159,0,0,1,2.114-2.2h.66v5.622a2.959,2.959,0,0,0,2.9,3.011H12.17v1.912a.407.407,0,0,0,.241.376.378.378,0,0,0,.15.031.384.384,0,0,0,.276-.118l2.131-2.2h.691v.807Z" transform="translate(0 -22.068)" fill="#fff"/>
    </g>
  </g>
  <g id="Group_21816" data-name="Group 21816" transform="translate(11.369 0)">
    <g id="Group_21815" data-name="Group 21815">
      <path id="Path_14910" data-name="Path 14910" d="M292.207,22.185a.407.407,0,1,0,.119.288A.409.409,0,0,0,292.207,22.185Z" transform="translate(-291.512 -22.066)" fill="#fff"/>
    </g>
  </g>
  <g id="Group_21818" data-name="Group 21818" transform="translate(8.996 3.73)">
    <g id="Group_21817" data-name="Group 21817" transform="translate(0 0)">
      <path id="Path_14911" data-name="Path 14911" d="M236.828,118.761l-1.706-4.557a.407.407,0,0,0-.762,0l-1.706,4.557a.407.407,0,1,0,.762.285l.6-1.608h1.447l.6,1.608a.407.407,0,1,0,.762-.285Zm-2.506-2.136.419-1.118.419,1.118Z" transform="translate(-232.627 -113.94)" fill="#fff"/>
    </g>
  </g>
  <g id="Group_21820" data-name="Group 21820" transform="translate(13.698 3.73)">
    <g id="Group_21819" data-name="Group 21819" transform="translate(0 0)">
      <path id="Path_14912" data-name="Path 14912" d="M360.062,118.617l-.191-.191a1.629,1.629,0,0,0,.184-.753v-2.094h0a1.639,1.639,0,1,0-3.277,0v2.094a1.638,1.638,0,0,0,2.55,1.361l.158.158a.407.407,0,1,0,.576-.575Zm-.82-.944a.825.825,0,0,1-.009.114l-.277-.277a.407.407,0,0,0-.576.575l.351.351a.824.824,0,0,1-1.139-.762v-2.094a.825.825,0,1,1,1.65,0v2.094Z" transform="translate(-356.778 -113.94)" fill="#fff"/>
    </g>
  </g>
  <g id="Group_21822" data-name="Group 21822" transform="translate(5.999 3.73)">
    <g id="Group_21821" data-name="Group 21821" transform="translate(0 0)">
      <path id="Path_14913" data-name="Path 14913" d="M156.677,116.624h-1.4v-1.688a.183.183,0,0,1,.182-.183h1.221a.407.407,0,1,0,0-.814h-1.221a1,1,0,0,0-1,1V118.9a.407.407,0,1,0,.814,0v-1.465h1.4a.407.407,0,0,0,0-.814Z" transform="translate(-154.46 -113.939)" fill="#fff"/>
    </g>
  </g>
  <g id="Group_21824" data-name="Group 21824" transform="translate(1.953 11.494)">
    <g id="Group_21823" data-name="Group 21823" transform="translate(0 0)">
      <path id="Path_14914" data-name="Path 14914" d="M48.8,305.29a.407.407,0,1,0,.119.288A.41.41,0,0,0,48.8,305.29Z" transform="translate(-48.105 -305.171)" fill="#fff"/>
    </g>
  </g>
</svg>
