<svg xmlns="http://www.w3.org/2000/svg" xmlns:xlink="http://www.w3.org/1999/xlink" width="20" height="20" viewBox="0 0 20 20">
  <defs>
    <clipPath id="clip-path">
      <rect id="Rectangle_17124" data-name="Rectangle 17124" width="20" height="20" transform="translate(4 5)" fill="#fff" stroke="#fff" stroke-width="1"/>
    </clipPath>
  </defs>
  <g id="ic_privacy-policy_active" transform="translate(-4 -5)" clip-path="url(#clip-path)">
    <g id="privacy_polciy" data-name="privacy polciy" transform="translate(6.632 5)">
      <path id="Path_15422" data-name="Path 15422" d="M78.781,4.078,75,.172A.558.558,0,0,0,74.6,0H66.289a2.117,2.117,0,0,0-2.078,2.148v15.7A2.117,2.117,0,0,0,66.289,20h10.58a2.117,2.117,0,0,0,2.078-2.148V4.492A.6.6,0,0,0,78.781,4.078ZM75.169,2l1.844,1.906H75.169Zm1.7,16.828H66.289a.962.962,0,0,1-.945-.977V2.148a.962.962,0,0,1,.945-.977h7.746v3.32a.577.577,0,0,0,.567.586h3.212V17.852A.962.962,0,0,1,76.869,18.828Z" transform="translate(-64.211 0)" fill="#fff"/>
      <path id="Path_15423" data-name="Path 15423" d="M156.289,172.106a1.8,1.8,0,0,1-1.628-1.086l-.077-.167a.546.546,0,0,0-.491-.328h-2.928a.546.546,0,0,0-.491.327l-.077.167a1.8,1.8,0,0,1-1.628,1.086.572.572,0,0,0-.549.592v3.381a6.417,6.417,0,0,0,1.124,3.662,5.667,5.667,0,0,0,2.927,2.214.51.51,0,0,0,.315,0,5.667,5.667,0,0,0,2.927-2.214,6.417,6.417,0,0,0,1.124-3.662V172.7A.572.572,0,0,0,156.289,172.106Zm-.549,3.973a4.9,4.9,0,0,1-3.111,4.687,4.9,4.9,0,0,1-3.111-4.687v-2.844a2.916,2.916,0,0,0,1.981-1.525h2.26a2.916,2.916,0,0,0,1.981,1.525Z" transform="translate(-145.261 -164.35)" fill="#fff"/>
      <path id="Path_15424" data-name="Path 15424" d="M212.55,277.769l-1.815,1.815-.7-.7a.592.592,0,1,0-.838.838l1.117,1.117a.592.592,0,0,0,.838,0l2.234-2.234a.592.592,0,0,0-.838-.838Z" transform="translate(-203.925 -267.317)" fill="#fff"/>
    </g>
  </g>
</svg>
