<svg id="ic_about-us_active" xmlns="http://www.w3.org/2000/svg" width="20" height="20" viewBox="0 0 20 20">
  <path id="Path_13355" data-name="Path 13355" d="M10,20A10,10,0,0,1,2.929,2.929,10,10,0,0,1,17.071,17.071,9.934,9.934,0,0,1,10,20ZM10,1.25A8.75,8.75,0,1,0,18.75,10,8.76,8.76,0,0,0,10,1.25Z" transform="translate(0 0)" fill="#fff"/>
  <path id="Path_13356" data-name="Path 13356" d="M179.129,106.637a.626.626,0,0,1-.626-.626,5.874,5.874,0,0,1,1.732-4.181,3.677,3.677,0,0,0,1.084-2.617,1.965,1.965,0,0,0-1.962-1.962h-.143a1.965,1.965,0,0,0-1.962,1.962v.228a.626.626,0,0,1-1.251,0v-.228A3.217,3.217,0,0,1,179.214,96h.143a3.217,3.217,0,0,1,3.214,3.214,4.92,4.92,0,0,1-1.45,3.5,4.631,4.631,0,0,0-1.365,3.3A.626.626,0,0,1,179.129,106.637Z" transform="translate(-169.129 -92.255)" fill="#fff"/>
  <path id="Path_13357" data-name="Path 13357" d="M240.641,401.251a.626.626,0,1,1,0-1.251h0a.626.626,0,0,1,0,1.251Z" transform="translate(-230.64 -384.376)" fill="#fff"/>
</svg>
