<svg id="ic_t_c_active" data-name="ic_t&amp;c_active" xmlns="http://www.w3.org/2000/svg" width="18" height="20" viewBox="0 0 18 20">
  <path id="Path_13358" data-name="Path 13358" d="M66.023,464H64.337a.337.337,0,0,0,0,.674h1.686a.337.337,0,1,0,0-.674Z" transform="translate(-62.989 -445.686)" fill="#fff"/>
  <path id="Path_13359" data-name="Path 13359" d="M128.674,464h-.337a.337.337,0,0,0,0,.674h.337a.337.337,0,1,0,0-.674Z" transform="translate(-124.406 -445.686)" fill="#fff"/>
  <path id="Path_13360" data-name="Path 13360" d="M80.337,106.023H91.126a.337.337,0,0,0,.337-.337v-1.349a.337.337,0,0,0-.337-.337H80.337a.337.337,0,0,0-.337.337v1.349A.337.337,0,0,0,80.337,106.023Zm.337-1.349H90.789v.674H80.674Z" transform="translate(-78.314 -100.148)" fill="#fff"/>
  <path id="Path_13361" data-name="Path 13361" d="M80.337,170.023H91.126a.337.337,0,0,0,.337-.337v-1.349a.337.337,0,0,0-.337-.337H80.337a.337.337,0,0,0-.337.337v1.349A.337.337,0,0,0,80.337,170.023Zm.337-1.349H90.789v.674H80.674Z" transform="translate(-78.314 -161.58)" fill="#fff"/>
  <path id="Path_13362" data-name="Path 13362" d="M80.337,234.023H91.126a.337.337,0,0,0,.337-.337v-1.349a.337.337,0,0,0-.337-.337H80.337a.337.337,0,0,0-.337.337v1.349A.337.337,0,0,0,80.337,234.023Zm.337-1.349H90.789v.674H80.674Z" transform="translate(-78.314 -223.011)" fill="#fff"/>
  <path id="Path_13363" data-name="Path 13363" d="M86.743,296H80.337a.337.337,0,0,0,0,.674h6.406a.337.337,0,0,0,0-.674Z" transform="translate(-78.314 -284.405)" fill="#fff"/>
  <path id="Path_13364" data-name="Path 13364" d="M84.72,320H80.337a.337.337,0,0,0,0,.674H84.72a.337.337,0,0,0,0-.674Z" transform="translate(-78.314 -307.438)" fill="#fff"/>
  <path id="Path_13365" data-name="Path 13365" d="M81.011,344.674a.337.337,0,1,0,0-.674h-.674a.337.337,0,0,0,0,.674Z" transform="translate(-78.314 -330.472)" fill="#fff"/>
  <path id="Path_13366" data-name="Path 13366" d="M120.674,344.674a.337.337,0,1,0,0-.674h-.337a.337.337,0,1,0,0,.674Z" transform="translate(-116.733 -330.472)" fill="#fff"/>
  <path id="Path_13367" data-name="Path 13367" d="M58,23.161A3.9,3.9,0,0,0,54.4,19.3V10.9a.32.32,0,0,0-.1-.228L51.686,8.094A.33.33,0,0,0,51.455,8H40.327A.325.325,0,0,0,40,8.323V27.677a.325.325,0,0,0,.327.323H54.073a.325.325,0,0,0,.327-.323v-.659A3.9,3.9,0,0,0,58,23.161ZM51.782,9.1l1.5,1.479h-1.5ZM40.655,27.355V8.645H51.127V10.9a.325.325,0,0,0,.327.323h2.291V19.3a3.867,3.867,0,0,0,0,7.715v.336Zm13.418-.968a3.226,3.226,0,1,1,3.273-3.226A3.25,3.25,0,0,1,54.073,26.387Z" transform="translate(-40 -8)" fill="#fff"/>
  <path id="Path_13368" data-name="Path 13368" d="M340.62,352.1a.337.337,0,0,0-.477,0l-2.174,2.174-1.46-.876a.337.337,0,1,0-.347.578l1.686,1.011a.337.337,0,0,0,.412-.051l2.36-2.36A.337.337,0,0,0,340.62,352.1Z" transform="translate(-324.068 -338.235)" fill="#fff"/>
</svg>
